<svg width="93" height="50" viewBox="0 0 93 50" fill="none" xmlns="http://www.w3.org/2000/svg">
<g id="img_aladin_logo">
<path id="Union" fill-rule="evenodd" clip-rule="evenodd" d="M48.7001 14.5519C46.5441 12.6057 44.8438 9.1154 47.9056 6.68327C51.7277 3.6472 56.3382 8.34836 50.7979 14.401C50.2415 15.0087 49.3117 15.104 48.7001 14.5519ZM5.68153 17.003C8.48702 16.5803 16.6922 16.0993 25.284 18.7907C33.0708 21.2299 36.4104 19.8098 39.9617 18.2997C42.4706 17.2329 45.0852 16.1211 49.4482 16.2934C55.3536 16.5267 58.9949 18.1975 61.6196 19.4019C63.6788 20.3468 65.1122 21.0046 66.5223 20.4556C68.5385 19.6706 69.6963 18.0174 70.9681 16.2014C72.1457 14.52 73.421 12.699 75.5658 11.2982C79.5729 8.68139 87.2037 11.4763 84.3923 17.5419C82.1684 22.34 76.9582 24.0162 72.4575 25.464C69.5398 26.4027 66.9203 27.2454 65.6059 28.7806C60.1859 35.1111 55.9883 36.093 54.2639 36.4963C53.9473 36.5704 53.7141 36.6249 53.572 36.6895C59.1911 37.938 61.0239 40.4357 61.0239 41.2682C61.0239 42.5167 59.4377 43.7657 50.8228 43.7657C41.3211 43.7657 39.8259 42.5169 39.8259 41.2682C39.8259 40.0319 41.7404 38.3875 46.1077 36.7394C45.0735 36.7862 41.3513 36.0858 32.4946 28.7806C27.4218 24.5963 16.9414 19.417 6.05313 19.5419C5.12972 19.5525 4.44607 18.642 4.76419 17.775C4.91273 17.3702 5.25514 17.0672 5.68153 17.003ZM76.5732 14.2222C74.8308 15.2161 72.5772 18.0892 70.9198 20.445C70.0514 21.6792 71.02 23.1815 72.465 22.7498C76.484 21.5493 81.2921 19.011 81.292 15.7585C81.292 13.7956 79.1788 12.7359 76.5732 14.2222Z" fill="url(#paint0_linear_1453_10411)"/>
</g>
<defs>
<linearGradient id="paint0_linear_1453_10411" x1="63.6143" y1="36.1787" x2="22.5349" y2="3.44348" gradientUnits="userSpaceOnUse">
<stop stop-color="#6358FA"/>
<stop offset="1" stop-color="#AFA9FF"/>
</linearGradient>
</defs>
</svg>
