<svg width="44" height="44" viewBox="0 0 44 44" fill="none" xmlns="http://www.w3.org/2000/svg">
<circle cx="22" cy="22" r="22" fill="#6358FA"/>
<path fill-rule="evenodd" clip-rule="evenodd" d="M15.3616 22.5323C15.274 20.8057 15.6787 18.8628 16.7392 17.3741C17.7751 15.92 19.4773 14.8371 22.1581 14.8371V13.3022C18.994 13.3022 16.8206 14.6146 15.4891 16.4835C14.3892 18.0275 13.8932 19.9068 13.8238 21.6465C13.2792 21.5952 12.6684 21.6235 12.0992 21.8186C11.6023 21.989 11.1189 22.294 10.7651 22.7975C10.4121 23.3 10.2324 23.9373 10.2324 24.6965C10.2324 26.41 10.793 28.5841 11.8553 29.9498C12.3937 30.6421 13.1357 31.2173 14.0792 31.2899C15.0314 31.3631 15.9689 30.9083 16.856 30.0213C17.0833 29.794 17.1448 29.4491 17.0102 29.1572L17.0101 29.157L17.0099 29.1566L17.0075 29.1514L16.9965 29.127C16.9865 29.1046 16.9712 29.07 16.9514 29.0241C16.9116 28.9322 16.8537 28.7949 16.7831 28.618C16.6419 28.2642 16.4506 27.7537 16.2537 27.1342C15.8579 25.8895 15.4479 24.2317 15.3616 22.5323ZM12.597 23.2706C12.9761 23.1406 13.4448 23.1356 13.8699 23.1971C14.0178 24.8598 14.4168 26.4225 14.791 27.5993C15.0008 28.2594 15.2051 28.8049 15.3576 29.187L15.3933 29.2759C14.8742 29.6905 14.4759 29.781 14.197 29.7595C13.8453 29.7325 13.4582 29.5107 13.0668 29.0075C12.2694 27.9822 11.7673 26.1711 11.7673 24.6965C11.7673 24.1806 11.8872 23.8703 12.021 23.6799C12.1542 23.4903 12.3449 23.357 12.597 23.2706ZM28.4238 22.5323C28.5135 20.7652 28.2233 18.8176 27.288 17.3391C26.3853 15.9118 24.8318 14.8371 22.1582 14.8371V13.3022C25.3293 13.3022 27.386 14.6228 28.5852 16.5186C29.5638 18.0657 29.9351 19.9357 29.9711 21.6456C30.5134 21.5955 31.1203 21.6246 31.6862 21.8186C32.1831 21.989 32.6665 22.294 33.0203 22.7975C33.3733 23.3 33.553 23.9373 33.553 24.6965C33.553 26.41 32.9924 28.5841 31.9301 29.9498C31.3917 30.6421 30.6497 31.2173 29.7062 31.2899C28.754 31.3631 27.8165 30.9083 26.9294 30.0213C26.7021 29.794 26.6406 29.4491 26.7752 29.1572L26.7753 29.157L26.7755 29.1566L26.7779 29.1514L26.7889 29.127C26.7989 29.1046 26.8142 29.07 26.834 29.0241C26.8738 28.9322 26.9317 28.7949 27.0023 28.618C27.1435 28.2642 27.3348 27.7537 27.5317 27.1342C27.9275 25.8895 28.3375 24.2317 28.4238 22.5323ZM31.1884 23.2706C30.8093 23.1406 30.3406 23.1356 29.9156 23.1971C29.7676 24.8598 29.3686 26.4225 28.9944 27.5993C28.7846 28.2594 28.5803 28.8049 28.4278 29.187L28.3921 29.2759C28.9112 29.6905 29.3095 29.781 29.5884 29.7595C29.9401 29.7325 30.3272 29.5107 30.7186 29.0075C31.516 27.9822 32.0181 26.1711 32.0181 24.6965C32.0181 24.1806 31.8982 23.8703 31.7644 23.6799C31.6312 23.4903 31.4405 23.357 31.1884 23.2706Z" fill="white"/>
</svg>
