<svg width="48" height="48" viewBox="0 0 48 48" fill="none" xmlns="http://www.w3.org/2000/svg">
<path d="M14.7377 26.1177H31.727L33.8039 15.5294H13.0347C12.8828 15.53 12.7329 15.5645 12.5955 15.6306C12.4581 15.6966 12.3366 15.7926 12.2396 15.9118C12.1425 16.0309 12.0723 16.1703 12.0339 16.3201C11.9954 16.4699 11.9896 16.6265 12.017 16.7788L13.72 25.2494C13.7598 25.4943 13.8843 25.7166 14.071 25.8759C14.2577 26.0352 14.4943 26.121 14.7377 26.1177V26.1177Z" stroke="white" stroke-width="2.25" stroke-linecap="round" stroke-linejoin="round"/>
<path d="M33.8042 15.5294L34.6765 12.1412C34.7244 11.902 34.8518 11.6871 35.0373 11.5327C35.2227 11.3784 35.4548 11.2941 35.6942 11.2941H38.9965" stroke="white" stroke-width="2.25" stroke-linecap="round" stroke-linejoin="round"/>
<path d="M31.7269 26.1177L30.8546 30.5647C30.8068 30.8039 30.6793 31.0188 30.4938 31.1732C30.3084 31.3276 30.0763 31.4118 29.8369 31.4118H17.1885" stroke="white" stroke-width="2.25" stroke-linecap="round" stroke-linejoin="round"/>
<path d="M18.2269 38.8235C18.8005 38.8235 19.2654 38.3495 19.2654 37.7647C19.2654 37.1799 18.8005 36.7059 18.2269 36.7059C17.6534 36.7059 17.1885 37.1799 17.1885 37.7647C17.1885 38.3495 17.6534 38.8235 18.2269 38.8235Z" stroke="white" stroke-width="2.25" stroke-linecap="round" stroke-linejoin="round"/>
<path d="M28.6117 38.8235C29.1852 38.8235 29.6502 38.3495 29.6502 37.7647C29.6502 37.1799 29.1852 36.7059 28.6117 36.7059C28.0382 36.7059 27.5732 37.1799 27.5732 37.7647C27.5732 38.3495 28.0382 38.8235 28.6117 38.8235Z" stroke="white" stroke-width="2.25" stroke-linecap="round" stroke-linejoin="round"/>
</svg>
