<svg width="5" height="8" viewBox="0 0 5 8" fill="none" xmlns="http://www.w3.org/2000/svg">
<path fill-rule="evenodd" clip-rule="evenodd" d="M4.70586 4.24442C4.54343 4.39093 4.28008 4.39093 4.11765 4.24442L0.294273 0.79583C0.131843 0.649321 0.131843 0.411785 0.294273 0.265276C0.456703 0.118768 0.720054 0.118768 0.882485 0.265276L4.70586 3.71387C4.86829 3.86038 4.86829 4.09792 4.70586 4.24442Z" fill="#737373"/>
<path fill-rule="evenodd" clip-rule="evenodd" d="M4.7057 3.75561C4.86813 3.90212 4.86813 4.13966 4.7057 4.28616L0.882318 7.73476C0.719888 7.88127 0.456536 7.88127 0.294106 7.73476C0.131676 7.58825 0.131675 7.35071 0.294106 7.20421L4.11748 3.75561C4.27991 3.6091 4.54327 3.6091 4.7057 3.75561Z" fill="#737373"/>
</svg>
