<svg width="22" height="7" viewBox="0 0 22 7" fill="none" xmlns="http://www.w3.org/2000/svg">
<path d="M0.816 6.508V0.327999H2.148V0.879999H2.196C2.724 0.495999 3.48 0.22 4.224 0.22C5.412 0.22 6.024 0.7 6.024 1.924V6.508H4.632V2.248C4.632 1.624 4.428 1.372 3.588 1.372C3.108 1.372 2.568 1.528 2.196 1.708V6.508H0.816ZM9.83659 6.616C7.78459 6.616 6.77659 5.452 6.77659 3.496V3.328C6.77659 1.252 8.03659 0.232 9.60859 0.232C11.4326 0.232 12.2246 1.252 12.2246 3.22V3.796H8.19259C8.27659 5.08 8.93659 5.536 10.1126 5.536C10.9046 5.536 11.4806 5.356 12.0206 5.08V6.04C11.6006 6.316 10.8806 6.616 9.83659 6.616ZM9.58459 1.252C8.94859 1.252 8.28859 1.588 8.19259 2.848H10.8206C10.8206 1.684 10.3886 1.252 9.58459 1.252ZM14.129 6.508L12.413 0.327999H13.877L14.969 4.744H15.017L16.265 0.327999H17.393L18.653 4.744H18.701L19.793 0.327999H21.053L19.349 6.508H18.017L16.769 2.32H16.733L15.497 6.508H14.129Z" fill="#6358FA"/>
</svg>
