<svg width="86" height="20" viewBox="0 0 86 20" fill="none" xmlns="http://www.w3.org/2000/svg">
<path d="M12 4L6 10L12 16" stroke="#9E9E9E" stroke-width="1.5" stroke-linecap="round" stroke-linejoin="round"/>
<path d="M21.4418 14.467L24.6918 6.875H20.6488V5.614H26.4208V6.563L23.2098 14.467H21.4418Z" fill="#9E9E9E"/>
<path d="M27.1834 15.819L30.2904 4.782H31.5904L28.4964 15.819H27.1834Z" fill="#9E9E9E"/>
<path d="M34.4244 14.519V7.187L32.9294 7.486V6.55L35.1914 5.536H36.0364V14.519H34.4244ZM41.3204 14.623C39.3704 14.623 37.8624 13.375 37.8624 10.346V9.787C37.8624 6.602 39.5004 5.458 41.3334 5.458C43.1794 5.458 44.7654 6.615 44.7654 9.748V10.307C44.7654 13.44 43.1794 14.623 41.3204 14.623ZM41.3204 13.401C42.5164 13.401 43.1144 12.543 43.1144 10.411V9.748C43.1144 7.629 42.5034 6.693 41.3334 6.693C40.1244 6.693 39.5264 7.577 39.5264 9.657V10.346C39.5264 12.413 40.1114 13.401 41.3204 13.401Z" fill="#9E9E9E"/>
<path d="M54 4L60 10L54 16" stroke="#9E9E9E" stroke-width="1.5" stroke-linecap="round" stroke-linejoin="round"/>
<rect x="73" y="5" width="2" height="10" fill="#8E8E8E"/>
<rect x="77" y="5" width="2" height="10" fill="#8E8E8E"/>
</svg>
